<svg width="38" height="31" viewBox="0 0 38 31" fill="none" xmlns="http://www.w3.org/2000/svg">
<path d="M37.5215 16.8392C37.1839 14.0636 35.6672 11.4469 33.2504 9.471C31.185 7.78256 28.6571 6.69754 25.9971 6.21508V4.68986C27.0836 4.4689 27.8911 3.66493 27.8911 2.70932C27.8911 1.5839 26.7712 0.668335 25.3946 0.668335H20.1079C18.7313 0.668335 17.6114 1.5839 17.6114 2.70932C17.6114 3.66487 18.4189 4.46884 19.5053 4.68986V6.21934C16.8534 6.70384 14.3339 7.78736 12.2744 9.47106C11.8237 9.83952 11.4081 10.226 11.0277 10.6278C11.0093 10.6266 10.9908 10.6255 10.972 10.6255H5.73956C5.33409 10.6255 5.00529 10.8942 5.00529 11.2258C5.00529 11.5573 5.33409 11.8261 5.73956 11.8261H10.0286C9.4902 12.5629 9.0561 13.3368 8.72568 14.1333H0.734268C0.328805 14.1333 0 14.4021 0 14.7336C0 15.0652 0.328805 15.3339 0.734268 15.3339H8.31074C8.09913 16.0933 7.97768 16.8662 7.94633 17.6413H4.69932C4.29386 17.6413 3.96505 17.91 3.96505 18.2415C3.96505 18.5731 4.29386 18.8418 4.69932 18.8418H7.96975C8.03172 19.6189 8.18452 20.3918 8.42823 21.1492H3.67134C3.26588 21.1492 2.93707 21.4179 2.93707 21.7495C2.93707 22.081 3.26588 22.3498 3.67134 22.3498H8.89684C9.61716 23.9076 10.7429 25.3677 12.2744 26.6197C14.6935 28.5975 17.8976 29.8378 21.2962 30.1123C21.7813 30.1514 22.2667 30.1708 22.7515 30.1708C25.6167 30.1708 28.4456 29.4929 30.8459 28.215C31.1857 28.0341 31.2818 27.6622 31.0605 27.3844C30.8392 27.1066 30.3843 27.028 30.0445 27.2089C24.7903 30.0061 17.7536 29.4013 13.3128 25.7708C8.10229 21.511 8.10229 14.5799 13.3128 10.3201C18.5232 6.06033 27.0013 6.06033 32.2119 10.3201C36.6468 13.9458 37.3906 19.6936 33.9805 23.987C33.7596 24.2651 33.8563 24.6369 34.1964 24.8174C34.5366 24.998 34.9913 24.9189 35.2121 24.6409C37.0341 22.3469 37.8543 19.5762 37.5215 16.8392ZM19.0799 2.70938C19.0799 2.24596 19.541 1.86898 20.1079 1.86898H25.3946C25.9615 1.86898 26.4226 2.24596 26.4226 2.70938C26.4226 3.17281 25.9615 3.54979 25.3946 3.54979H25.2629H20.2395H20.1079C19.541 3.54979 19.0799 3.17275 19.0799 2.70938ZM20.9738 6.01296V4.75037H24.5286V6.0108C23.3482 5.89603 22.154 5.89675 20.9738 6.01296Z" fill="#2F4BDF"/>
<path d="M32.7313 25.5942C32.5375 25.5942 32.3488 25.6585 32.2123 25.7701C32.075 25.8818 31.9971 26.0366 31.9971 26.1945C31.9971 26.3524 32.075 26.5073 32.2123 26.6189C32.3488 26.7312 32.5375 26.7948 32.7313 26.7948C32.9244 26.7948 33.1131 26.7312 33.2504 26.6189C33.387 26.5073 33.4656 26.3524 33.4656 26.1945C33.4656 26.0366 33.3871 25.8818 33.2504 25.7701C33.1131 25.6585 32.9243 25.5942 32.7313 25.5942Z" fill="#2F4BDF"/>
<path d="M22.7622 8.73279C16.4814 8.73279 11.3716 12.9102 11.3716 18.045C11.3716 23.1797 16.4814 27.3571 22.7622 27.3571C29.043 27.3571 34.1528 23.1797 34.1528 18.045C34.1528 12.9102 29.043 8.73279 22.7622 8.73279ZM22.7622 26.1566C17.2911 26.1566 12.8401 22.5177 12.8401 18.045C12.8401 13.5722 17.2911 9.93336 22.7622 9.93336C28.2333 9.93336 32.6843 13.5722 32.6843 18.045C32.6843 22.5177 28.2333 26.1566 22.7622 26.1566Z" fill="#2F4BDF"/>
<path d="M27.4072 13.3991L23.7704 16.3722C23.4663 16.2492 23.1242 16.1798 22.7626 16.1798C22.4009 16.1798 22.0588 16.2492 21.7547 16.3722L20.1271 15.0415C19.8403 14.8071 19.3755 14.8071 19.0886 15.0415C18.8019 15.276 18.8019 15.6561 19.0886 15.8905L20.7162 17.2211C20.5658 17.4697 20.4809 17.7494 20.4809 18.045C20.4809 19.0735 21.5044 19.9103 22.7626 19.9103C24.0207 19.9103 25.0442 19.0735 25.0442 18.045C25.0442 17.7494 24.9593 17.4697 24.8089 17.2211L28.3389 14.3352L28.4456 14.248C28.7324 14.0136 28.7324 13.6335 28.4456 13.3991C28.1589 13.1647 27.6941 13.1647 27.4072 13.3991ZM22.7626 18.7098C22.3142 18.7098 21.9494 18.4116 21.9494 18.0451C21.9494 17.6786 22.3142 17.3803 22.7626 17.3803C23.2109 17.3803 23.5757 17.6786 23.5757 18.0451C23.5757 18.4116 23.2109 18.7098 22.7626 18.7098Z" fill="#2F4BDF"/>
<path d="M30.6128 17.452H29.9325C29.527 17.452 29.1982 17.7208 29.1982 18.0524C29.1982 18.3839 29.527 18.6527 29.9325 18.6527H30.6128C31.0182 18.6527 31.347 18.3839 31.347 18.0524C31.347 17.7208 31.0182 17.452 30.6128 17.452Z" fill="#2F4BDF"/>
<path d="M15.5917 17.4374H14.9115C14.506 17.4374 14.1772 17.7062 14.1772 18.0377C14.1772 18.3693 14.506 18.6381 14.9115 18.6381H15.5917C15.9972 18.6381 16.326 18.3693 16.326 18.0377C16.326 17.7062 15.9972 17.4374 15.5917 17.4374Z" fill="#2F4BDF"/>
<path d="M22.7714 12.7829C23.1768 12.7829 23.5056 12.5141 23.5056 12.1826V11.6264C23.5056 11.2949 23.1768 11.0261 22.7714 11.0261C22.3659 11.0261 22.0371 11.2949 22.0371 11.6264V12.1826C22.0371 12.5141 22.3659 12.7829 22.7714 12.7829Z" fill="#2F4BDF"/>
<path d="M22.7533 23.3066C22.3478 23.3066 22.019 23.5754 22.019 23.907V24.4631C22.019 24.7946 22.3478 25.0634 22.7533 25.0634C23.1587 25.0634 23.4875 24.7946 23.4875 24.4631V23.907C23.4875 23.5754 23.1587 23.3066 22.7533 23.3066Z" fill="#2F4BDF"/>
<path d="M0.734242 21.1484C0.541136 21.1484 0.351702 21.2127 0.215133 21.3243C0.0785639 21.436 0 21.5909 0 21.7488C0 21.9073 0.0784905 22.0616 0.215133 22.1732C0.351775 22.2849 0.541136 22.3491 0.734242 22.3491C0.927348 22.3491 1.11678 22.2849 1.25328 22.1732C1.38985 22.0616 1.46848 21.9067 1.46848 21.7488C1.46848 21.5909 1.38992 21.436 1.25328 21.3243C1.11678 21.2127 0.927348 21.1484 0.734242 21.1484Z" fill="#2F4BDF"/>
</svg>
