<svg width="69" height="73" viewBox="0 0 69 73" fill="none" xmlns="http://www.w3.org/2000/svg">
<path d="M38.4019 20.9571C38.4019 30.9312 30.3725 38.9944 20.4953 38.9944C10.618 38.9944 2.58862 30.9312 2.58862 20.9571C2.58862 10.983 10.618 2.9198 20.4953 2.9198C30.3725 2.9198 38.4019 10.983 38.4019 20.9571Z" stroke="#6CE1B7" stroke-width="4"/>
<g filter="url(#filter0_d_5561_303)">
<path d="M56.3273 35.0335L45.9264 39.6837L54.3223 48.2301L48.182 54.2628L39.7861 45.8421L34.7737 56.0224L21.4906 20.9571L56.3273 35.0335Z" fill="white"/>
<path d="M56.3273 35.0335L45.9264 39.6837L54.3223 48.2301L48.182 54.2628L39.7861 45.8421L34.7737 56.0224L21.4906 20.9571L56.3273 35.0335Z" stroke="#6CE1B7" stroke-width="2"/>
</g>
<defs>
<filter id="filter0_d_5561_303" x="9.7456" y="13.1735" width="59.1357" height="59.3558" filterUnits="userSpaceOnUse" color-interpolation-filters="sRGB">
<feFlood flood-opacity="0" result="BackgroundImageFix"/>
<feColorMatrix in="SourceAlpha" type="matrix" values="0 0 0 0 0 0 0 0 0 0 0 0 0 0 0 0 0 0 127 0" result="hardAlpha"/>
<feOffset dy="4"/>
<feGaussianBlur stdDeviation="5"/>
<feColorMatrix type="matrix" values="0 0 0 0 0.267483 0 0 0 0 0.281291 0 0 0 0 0.645833 0 0 0 0.4 0"/>
<feBlend mode="normal" in2="BackgroundImageFix" result="effect1_dropShadow_5561_303"/>
<feBlend mode="normal" in="SourceGraphic" in2="effect1_dropShadow_5561_303" result="shape"/>
</filter>
</defs>
</svg>
