<svg width="310" height="312" viewBox="0 0 310 312" fill="none" xmlns="http://www.w3.org/2000/svg">
<path d="M283.421 69.5766C294.474 86.2489 302.414 105.191 306.404 125.56L303.017 126.223C304.893 135.798 305.876 145.697 305.876 155.831C305.876 165.964 304.893 175.864 303.017 185.438L306.404 186.101C302.414 206.471 294.474 225.412 283.421 242.085L280.544 240.178C269.533 256.788 255.361 271.094 238.897 282.225L240.83 285.084C224.224 296.311 205.336 304.381 185.013 308.441L184.337 305.057C174.772 306.968 164.88 307.971 154.751 307.971C144.622 307.971 134.73 306.968 125.164 305.057L124.488 308.441C104.166 304.381 85.2773 296.311 68.6715 285.084L70.6044 282.225C54.1404 271.094 39.969 256.788 28.9572 240.178L26.0807 242.085C15.0278 225.412 7.08799 206.471 3.09772 186.101L6.4845 185.438C4.60899 175.864 3.62528 165.964 3.62528 155.831C3.62528 145.697 4.60899 135.798 6.4845 126.223L3.09772 125.56C7.08798 105.191 15.0278 86.2489 26.0807 69.5766L28.9572 71.4836C39.969 54.8734 54.1404 40.5673 70.6044 29.4364L68.6715 26.5773C85.2773 15.3505 104.166 7.28005 124.488 3.21983L125.164 6.6041C134.73 4.69311 144.622 3.69049 154.751 3.69049C164.88 3.69049 174.772 4.69311 184.337 6.6041L185.013 3.21983C205.336 7.28005 224.224 15.3504 240.83 26.5773L238.897 29.4364C255.361 40.5673 269.533 54.8734 280.544 71.4836L283.421 69.5766Z" stroke="white" stroke-width="6.90229" stroke-dasharray="51.77 51.77"/>
</svg>
