<svg width="478" height="312" viewBox="0 0 478 312" fill="none" xmlns="http://www.w3.org/2000/svg">
<path d="M451.421 69.5766C462.474 86.2489 470.414 105.191 474.404 125.56L471.017 126.223C472.893 135.798 473.876 145.697 473.876 155.831C473.876 165.964 472.893 175.864 471.017 185.438L474.404 186.101C470.414 206.471 462.474 225.412 451.421 242.085L448.544 240.178C437.533 256.788 423.361 271.094 406.897 282.225L408.83 285.084C392.224 296.311 373.336 304.381 353.013 308.441L352.337 305.057C342.772 306.968 332.88 307.971 322.751 307.971C312.622 307.971 302.73 306.968 293.164 305.057L292.488 308.441C272.166 304.381 253.277 296.311 236.671 285.084L238.604 282.225C222.14 271.094 207.969 256.788 196.957 240.178L194.081 242.085C183.028 225.412 175.088 206.471 171.098 186.101L174.484 185.438C172.609 175.864 171.625 165.964 171.625 155.831C171.625 145.697 172.609 135.798 174.484 126.223L171.098 125.56C175.088 105.191 183.028 86.2489 194.081 69.5766L196.957 71.4836C207.969 54.8734 222.14 40.5673 238.604 29.4364L236.671 26.5773C253.277 15.3505 272.166 7.28005 292.488 3.21983L293.164 6.6041C302.73 4.69311 312.622 3.69049 322.751 3.69049C332.88 3.69049 342.772 4.69311 352.337 6.6041L353.013 3.21983C373.336 7.28005 392.224 15.3504 408.83 26.5773L406.897 29.4364C423.361 40.5673 437.533 54.8734 448.544 71.4836L451.421 69.5766Z" stroke="white" stroke-width="6.90229" stroke-dasharray="51.77 51.77"/>
<rect x="0.97258" y="203.834" width="301.586" height="68.1269" rx="34.0634" fill="#FAFAFA"/>
<path d="M22.3439 248.864V227.714H36.0239V230.234H25.3439V236.864H35.3939V239.384H25.3439V246.344H36.0239V248.864H22.3439ZM39.6799 248.864V234.224H42.6199V236.654C43.1199 235.774 43.7999 235.104 44.6599 234.644C45.5399 234.184 46.5199 233.954 47.5999 233.954C51.0599 233.954 52.7899 235.914 52.7899 239.834V248.864H49.7599V240.014C49.7599 238.754 49.5099 237.834 49.0099 237.254C48.5299 236.674 47.7699 236.384 46.7299 236.384C45.5099 236.384 44.5299 236.774 43.7899 237.554C43.0699 238.314 42.7099 239.324 42.7099 240.584V248.864H39.6799ZM63.4151 249.134C61.9151 249.134 60.6151 248.824 59.5151 248.204C58.4351 247.564 57.5951 246.674 56.9951 245.534C56.3951 244.374 56.0951 243.014 56.0951 241.454C56.0951 239.134 56.7551 237.304 58.0751 235.964C59.3951 234.624 61.1751 233.954 63.4151 233.954C64.3351 233.954 65.2451 234.114 66.1451 234.434C67.0451 234.754 67.7851 235.194 68.3651 235.754L67.4051 237.884C66.8451 237.364 66.2251 236.984 65.5451 236.744C64.8851 236.484 64.2551 236.354 63.6551 236.354C62.2351 236.354 61.1351 236.804 60.3551 237.704C59.5951 238.584 59.2151 239.844 59.2151 241.484C59.2151 243.124 59.5951 244.414 60.3551 245.354C61.1351 246.274 62.2351 246.734 63.6551 246.734C64.2551 246.734 64.8851 246.614 65.5451 246.374C66.2251 246.114 66.8451 245.724 67.4051 245.204L68.3651 247.364C67.7851 247.904 67.0351 248.334 66.1151 248.654C65.2151 248.974 64.3151 249.134 63.4151 249.134ZM77.036 249.134C75.556 249.134 74.276 248.824 73.196 248.204C72.116 247.584 71.276 246.714 70.676 245.594C70.096 244.454 69.806 243.104 69.806 241.544C69.806 239.984 70.096 238.644 70.676 237.524C71.276 236.384 72.116 235.504 73.196 234.884C74.276 234.264 75.556 233.954 77.036 233.954C78.476 233.954 79.736 234.264 80.816 234.884C81.896 235.504 82.736 236.384 83.336 237.524C83.936 238.644 84.236 239.984 84.236 241.544C84.236 243.104 83.936 244.454 83.336 245.594C82.736 246.714 81.896 247.584 80.816 248.204C79.736 248.824 78.476 249.134 77.036 249.134ZM77.036 246.794C78.276 246.794 79.276 246.344 80.036 245.444C80.796 244.544 81.176 243.244 81.176 241.544C81.176 239.844 80.796 238.554 80.036 237.674C79.276 236.774 78.276 236.324 77.036 236.324C75.776 236.324 74.766 236.774 74.006 237.674C73.246 238.554 72.866 239.844 72.866 241.544C72.866 243.244 73.246 244.544 74.006 245.444C74.766 246.344 75.776 246.794 77.036 246.794ZM87.6389 248.864V234.224H90.5789V236.654C91.0789 235.774 91.7589 235.104 92.6189 234.644C93.4989 234.184 94.4789 233.954 95.5589 233.954C99.0189 233.954 100.749 235.914 100.749 239.834V248.864H97.7189V240.014C97.7189 238.754 97.4689 237.834 96.9689 237.254C96.4889 236.674 95.7289 236.384 94.6889 236.384C93.4689 236.384 92.4889 236.774 91.7489 237.554C91.0289 238.314 90.6689 239.324 90.6689 240.584V248.864H87.6389ZM111.164 249.134C109.324 249.134 107.954 248.664 107.054 247.724C106.154 246.784 105.704 245.424 105.704 243.644V236.564H102.854V234.224H105.704V229.814H108.734V234.224H113.264V236.564H108.734V243.404C108.734 244.464 108.954 245.264 109.394 245.804C109.854 246.344 110.594 246.614 111.614 246.614C111.934 246.614 112.244 246.584 112.544 246.524C112.844 246.444 113.144 246.354 113.444 246.254L113.924 248.534C113.624 248.714 113.204 248.854 112.664 248.954C112.144 249.074 111.644 249.134 111.164 249.134ZM115.881 248.864V234.224H118.821V236.834C119.581 235.094 121.161 234.124 123.561 233.924L124.551 233.864L124.761 236.444L122.931 236.624C120.271 236.884 118.941 238.254 118.941 240.734V248.864H115.881ZM133.737 249.134C131.337 249.134 129.447 248.464 128.067 247.124C126.687 245.764 125.997 243.914 125.997 241.574C125.997 240.074 126.297 238.754 126.897 237.614C127.517 236.454 128.367 235.554 129.447 234.914C130.527 234.274 131.767 233.954 133.167 233.954C135.187 233.954 136.777 234.604 137.937 235.904C139.097 237.184 139.677 238.954 139.677 241.214V242.234H128.937C129.157 245.274 130.767 246.794 133.767 246.794C134.607 246.794 135.427 246.664 136.227 246.404C137.047 246.144 137.817 245.714 138.537 245.114L139.437 247.214C138.777 247.814 137.927 248.284 136.887 248.624C135.847 248.964 134.797 249.134 133.737 249.134ZM133.287 236.084C132.027 236.084 131.027 236.474 130.287 237.254C129.547 238.034 129.097 239.074 128.937 240.374H137.127C137.067 239.014 136.707 237.964 136.047 237.224C135.387 236.464 134.467 236.084 133.287 236.084ZM156.082 249.134C152.542 249.134 150.772 247.164 150.772 243.224V234.224H153.802V243.254C153.802 244.434 154.042 245.304 154.522 245.864C155.002 246.424 155.762 246.704 156.802 246.704C157.942 246.704 158.862 246.324 159.562 245.564C160.282 244.804 160.642 243.784 160.642 242.504V234.224H163.672V248.864H160.732V246.524C160.252 247.384 159.612 248.034 158.812 248.474C158.012 248.914 157.102 249.134 156.082 249.134ZM168.002 248.864V234.224H170.942V236.594C171.382 235.754 171.992 235.104 172.772 234.644C173.552 234.184 174.462 233.954 175.502 233.954C177.742 233.954 179.192 234.934 179.852 236.894C180.312 235.974 180.972 235.254 181.832 234.734C182.692 234.214 183.672 233.954 184.772 233.954C188.052 233.954 189.692 235.914 189.692 239.834V248.864H186.662V239.984C186.662 238.744 186.442 237.834 186.002 237.254C185.582 236.674 184.882 236.384 183.902 236.384C182.802 236.384 181.932 236.774 181.292 237.554C180.652 238.314 180.332 239.354 180.332 240.674V248.864H177.302V239.984C177.302 238.744 177.092 237.834 176.672 237.254C176.252 236.674 175.552 236.384 174.572 236.384C173.472 236.384 172.602 236.774 171.962 237.554C171.342 238.314 171.032 239.354 171.032 240.674V248.864H168.002ZM198.608 249.134C197.588 249.134 196.678 248.934 195.878 248.534C195.078 248.134 194.438 247.594 193.958 246.914C193.498 246.234 193.268 245.464 193.268 244.604C193.268 243.524 193.538 242.674 194.078 242.054C194.638 241.434 195.548 240.984 196.808 240.704C198.088 240.424 199.808 240.284 201.968 240.284H202.988V239.504C202.988 238.364 202.748 237.544 202.268 237.044C201.788 236.544 200.998 236.294 199.898 236.294C199.058 236.294 198.218 236.424 197.378 236.684C196.538 236.924 195.678 237.314 194.798 237.854L193.868 235.724C194.628 235.184 195.578 234.754 196.718 234.434C197.858 234.114 198.948 233.954 199.988 233.954C201.988 233.954 203.468 234.434 204.428 235.394C205.388 236.334 205.868 237.814 205.868 239.834V248.864H203.018V246.434C202.658 247.274 202.098 247.934 201.338 248.414C200.578 248.894 199.668 249.134 198.608 249.134ZM199.208 246.974C200.288 246.974 201.188 246.594 201.908 245.834C202.628 245.074 202.988 244.114 202.988 242.954V242.144H201.998C200.538 242.144 199.388 242.214 198.548 242.354C197.728 242.494 197.138 242.734 196.778 243.074C196.438 243.394 196.268 243.844 196.268 244.424C196.268 245.184 196.528 245.804 197.048 246.284C197.568 246.744 198.288 246.974 199.208 246.974ZM224.942 248.864L215.612 227.714H218.942L226.352 244.934L233.762 227.714H236.942L227.612 248.864H224.942ZM241.85 249.134C240.83 249.134 239.92 248.934 239.12 248.534C238.32 248.134 237.68 247.594 237.2 246.914C236.74 246.234 236.51 245.464 236.51 244.604C236.51 243.524 236.78 242.674 237.32 242.054C237.88 241.434 238.79 240.984 240.05 240.704C241.33 240.424 243.05 240.284 245.21 240.284H246.23V239.504C246.23 238.364 245.99 237.544 245.51 237.044C245.03 236.544 244.24 236.294 243.14 236.294C242.3 236.294 241.46 236.424 240.62 236.684C239.78 236.924 238.92 237.314 238.04 237.854L237.11 235.724C237.87 235.184 238.82 234.754 239.96 234.434C241.1 234.114 242.19 233.954 243.23 233.954C245.23 233.954 246.71 234.434 247.67 235.394C248.63 236.334 249.11 237.814 249.11 239.834V248.864H246.26V246.434C245.9 247.274 245.34 247.934 244.58 248.414C243.82 248.894 242.91 249.134 241.85 249.134ZM242.45 246.974C243.53 246.974 244.43 246.594 245.15 245.834C245.87 245.074 246.23 244.114 246.23 242.954V242.144H245.24C243.78 242.144 242.63 242.214 241.79 242.354C240.97 242.494 240.38 242.734 240.02 243.074C239.68 243.394 239.51 243.844 239.51 244.424C239.51 245.184 239.77 245.804 240.29 246.284C240.81 246.744 241.53 246.974 242.45 246.974ZM259.913 254.534C258.593 254.534 257.363 254.374 256.223 254.054C255.083 253.754 254.073 253.274 253.193 252.614L254.123 250.454C255.003 251.054 255.903 251.494 256.823 251.774C257.743 252.054 258.703 252.194 259.703 252.194C262.503 252.194 263.903 250.794 263.903 247.994V245.684C263.483 246.564 262.823 247.254 261.923 247.754C261.043 248.254 260.053 248.504 258.953 248.504C257.633 248.504 256.483 248.204 255.503 247.604C254.523 246.984 253.763 246.134 253.223 245.054C252.683 243.954 252.413 242.674 252.413 241.214C252.413 239.774 252.683 238.514 253.223 237.434C253.763 236.334 254.523 235.484 255.503 234.884C256.483 234.264 257.633 233.954 258.953 233.954C260.073 233.954 261.073 234.204 261.953 234.704C262.833 235.204 263.483 235.894 263.903 236.774V234.224H266.843V247.634C266.843 249.934 266.253 251.654 265.073 252.794C263.893 253.954 262.173 254.534 259.913 254.534ZM259.673 246.134C260.953 246.134 261.973 245.694 262.733 244.814C263.493 243.934 263.873 242.734 263.873 241.214C263.873 239.694 263.493 238.504 262.733 237.644C261.973 236.764 260.953 236.324 259.673 236.324C258.393 236.324 257.373 236.764 256.613 237.644C255.853 238.504 255.473 239.694 255.473 241.214C255.473 242.734 255.853 243.934 256.613 244.814C257.373 245.694 258.393 246.134 259.673 246.134ZM275.776 249.134C274.756 249.134 273.846 248.934 273.046 248.534C272.246 248.134 271.606 247.594 271.126 246.914C270.666 246.234 270.436 245.464 270.436 244.604C270.436 243.524 270.706 242.674 271.246 242.054C271.806 241.434 272.716 240.984 273.976 240.704C275.256 240.424 276.976 240.284 279.136 240.284H280.156V239.504C280.156 238.364 279.916 237.544 279.436 237.044C278.956 236.544 278.166 236.294 277.066 236.294C276.226 236.294 275.386 236.424 274.546 236.684C273.706 236.924 272.846 237.314 271.966 237.854L271.036 235.724C271.796 235.184 272.746 234.754 273.886 234.434C275.026 234.114 276.116 233.954 277.156 233.954C279.156 233.954 280.636 234.434 281.596 235.394C282.556 236.334 283.036 237.814 283.036 239.834V248.864H280.186V246.434C279.826 247.274 279.266 247.934 278.506 248.414C277.746 248.894 276.836 249.134 275.776 249.134ZM276.376 246.974C277.456 246.974 278.356 246.594 279.076 245.834C279.796 245.074 280.156 244.114 280.156 242.954V242.144H279.166C277.706 242.144 276.556 242.214 275.716 242.354C274.896 242.494 274.306 242.734 273.946 243.074C273.606 243.394 273.436 243.844 273.436 244.424C273.436 245.184 273.696 245.804 274.216 246.284C274.736 246.744 275.456 246.974 276.376 246.974Z" fill="#494949"/>
</svg>
