<svg width="250" height="250" viewBox="0 0 250 250" fill="none" xmlns="http://www.w3.org/2000/svg">
<path d="M138.091 189.721C137.578 190.232 137.021 190.69 136.422 191.096C135.823 191.505 135.193 191.854 134.529 192.143C133.865 192.435 133.18 192.661 132.474 192.826C131.768 192.99 131.055 193.086 130.331 193.117C129.607 193.148 128.888 193.112 128.169 193.01C127.453 192.906 126.75 192.74 126.065 192.508C125.38 192.276 124.721 191.982 124.089 191.628C123.456 191.273 122.862 190.865 122.307 190.398C107.583 178.102 79.0209 153.253 75.1016 142.456C70.086 128.643 72.224 112.904 83.5651 102.602C97.1537 90.2578 116.05 90.4531 129.589 100.185L129.57 100.214C143.115 90.4479 162.031 90.2474 175.633 102.599C178.672 105.359 180.922 108.578 182.805 111.906C190.367 125.284 185.805 141.333 177.667 150.422L138.091 189.721Z" fill="#FD9B79"/>
<path d="M129.831 193.542C128.409 193.542 127.029 193.297 125.693 192.81C124.354 192.323 123.143 191.622 122.052 190.706C84.7656 159.56 76.388 147.193 74.7291 142.591C72.1458 135.492 71.4869 128.073 72.8099 121.138C73.1432 119.336 73.6198 117.576 74.2422 115.852C74.8645 114.128 75.6198 112.466 76.5104 110.867C77.4036 109.268 78.4166 107.75 79.5547 106.315C80.6927 104.88 81.9401 103.547 83.2968 102.315C89.8776 96.3307 97.9297 93.0156 106.583 92.7188C108.625 92.6615 110.661 92.7656 112.687 93.0365C114.714 93.3073 116.703 93.7396 118.661 94.3333C120.617 94.9271 122.513 95.6745 124.349 96.5755C126.182 97.474 127.935 98.5182 129.602 99.7005C131.266 98.5182 133.013 97.4766 134.846 96.5755C136.68 95.6745 138.573 94.9297 140.529 94.3359C142.482 93.7422 144.471 93.3099 146.495 93.0365C148.521 92.7656 150.552 92.6589 152.594 92.7161C161.255 93.0078 169.315 96.3255 175.901 102.307C178.612 104.771 180.914 107.758 183.151 111.714C186.695 117.982 187.859 125.289 186.516 132.846C185.346 139.424 182.229 145.927 177.964 150.69L177.948 150.706L138.372 190C137.24 191.135 135.932 192.008 134.453 192.622C132.974 193.234 131.432 193.542 129.831 193.542ZM107.81 93.4896C107.409 93.4896 107.013 93.4896 106.609 93.5104C98.1458 93.8021 90.2708 97.0469 83.8307 102.896C73.3177 112.44 70.1145 127.549 75.4765 142.32C79.4531 153.255 109.727 179.372 122.562 190.094C123.099 190.544 123.672 190.943 124.281 191.286C124.891 191.633 125.529 191.917 126.19 192.143C126.854 192.37 127.531 192.531 128.227 192.633C128.919 192.732 129.615 192.766 130.315 192.737C131.016 192.706 131.706 192.612 132.388 192.453C133.07 192.294 133.732 192.073 134.375 191.792C135.016 191.508 135.625 191.169 136.203 190.773C136.781 190.378 137.318 189.932 137.812 189.438L177.388 150.148C181.557 145.497 184.599 139.141 185.745 132.706C187.055 125.333 185.922 118.211 182.471 112.107C180.276 108.224 178.023 105.299 175.378 102.896C168.932 97.0391 161.049 93.7943 152.578 93.5078C150.555 93.4505 148.536 93.5599 146.529 93.8333C144.523 94.1068 142.552 94.5417 140.615 95.1406C138.68 95.737 136.805 96.4896 134.992 97.3932C133.18 98.2995 131.453 99.3464 129.812 100.534C129.734 100.591 129.646 100.617 129.549 100.609C129.453 100.602 129.37 100.563 129.299 100.495C129.276 100.471 129.255 100.445 129.24 100.414C127.685 99.3047 126.055 98.3177 124.349 97.4583C122.643 96.599 120.88 95.8776 119.062 95.2891C117.245 94.7031 115.391 94.2578 113.505 93.9557C111.62 93.6536 109.719 93.5 107.81 93.4896Z" fill="#FEFEFE"/>
<path d="M170.26 108.289C169.583 107.612 168.878 106.971 168.138 106.365C167.398 105.758 166.63 105.19 165.836 104.659C165.042 104.128 164.221 103.635 163.378 103.185C162.536 102.734 161.672 102.326 160.789 101.961C159.906 101.594 159.005 101.273 158.091 100.995C157.177 100.719 156.25 100.487 155.312 100.299C154.375 100.115 153.43 99.974 152.477 99.8802C151.526 99.7865 150.573 99.7396 149.617 99.7396C148.661 99.7396 147.706 99.7865 146.755 99.8802C145.802 99.974 144.859 100.115 143.922 100.299C142.982 100.487 142.057 100.719 141.141 100.995C140.227 101.273 139.328 101.594 138.445 101.961C137.56 102.326 136.698 102.734 135.854 103.185C135.01 103.635 134.193 104.128 133.396 104.659C132.602 105.19 131.833 105.758 131.096 106.365C130.357 106.971 129.648 107.612 128.971 108.289L128.956 108.305L128.919 108.266C128.242 107.596 127.534 106.961 126.794 106.362C126.055 105.76 125.286 105.198 124.492 104.672C123.698 104.146 122.878 103.661 122.036 103.216C121.193 102.771 120.331 102.367 119.451 102.005C118.568 101.646 117.672 101.328 116.758 101.055C115.844 100.781 114.922 100.555 113.987 100.37C113.049 100.188 112.109 100.052 111.161 99.9609C110.211 99.8698 109.26 99.8281 108.307 99.8307C107.354 99.8333 106.406 99.8802 105.456 99.9766C104.508 100.073 103.568 100.214 102.633 100.401C101.701 100.591 100.776 100.823 99.8646 101.102C98.9531 101.38 98.0599 101.701 97.1797 102.068C96.2995 102.432 95.4401 102.841 94.5989 103.292C93.7604 103.742 92.9427 104.232 92.151 104.76C91.3594 105.292 90.5963 105.859 89.8594 106.464C89.1224 107.068 88.4193 107.708 87.7448 108.38C87.0703 109.055 86.4323 109.76 85.8281 110.497C85.2213 111.232 84.6536 111.997 84.125 112.789C83.5963 113.581 83.1042 114.396 82.6562 115.237C82.2057 116.076 81.7969 116.935 81.4323 117.815C81.0651 118.695 80.7448 119.591 80.4661 120.503C80.1875 121.414 79.9557 122.336 79.7656 123.271C79.5781 124.206 79.4375 125.146 79.3411 126.094C79.2448 127.042 79.1979 127.992 79.1953 128.945C79.1927 129.898 79.237 130.849 79.3255 131.797C79.4167 132.745 79.5521 133.688 79.737 134.622C79.9193 135.557 80.1458 136.482 80.4193 137.396C80.6927 138.307 81.0104 139.206 81.3724 140.086C81.7318 140.969 82.1354 141.831 82.5807 142.672C83.026 143.516 83.513 144.333 84.0364 145.128C84.5625 145.922 85.125 146.69 85.7265 147.43C86.3281 148.169 86.9635 148.878 87.6328 149.555L88.3958 150.318L89.4219 150.979C89.375 151.49 89.3984 151.997 89.4922 152.503C89.5833 153.005 89.7422 153.49 89.9661 153.951C90.1927 154.411 90.4739 154.833 90.8151 155.216C91.1562 155.599 91.5417 155.93 91.9739 156.206C92.4062 156.484 92.8646 156.698 93.3568 156.849C93.8463 157 94.3463 157.083 94.8594 157.096C95.3724 157.109 95.8776 157.052 96.375 156.927C96.8724 156.802 97.3437 156.612 97.789 156.357L98.125 156.583C97.9531 156.875 97.8073 157.18 97.6875 157.497C97.5703 157.815 97.4818 158.141 97.4219 158.474C97.3646 158.81 97.3359 159.146 97.3385 159.484C97.3385 159.823 97.3724 160.159 97.4349 160.492C97.4974 160.826 97.5911 161.151 97.7135 161.466C97.8359 161.784 97.9844 162.086 98.1614 162.375C98.3385 162.664 98.5417 162.935 98.7656 163.188C98.9922 163.44 99.2396 163.672 99.5078 163.88C99.776 164.089 100.06 164.268 100.362 164.424C100.661 164.581 100.974 164.711 101.299 164.81C101.622 164.909 101.953 164.979 102.292 165.018C102.628 165.057 102.964 165.065 103.302 165.044C103.641 165.023 103.977 164.971 104.305 164.888C104.633 164.807 104.953 164.695 105.26 164.555C105.57 164.414 105.865 164.247 106.143 164.055C106.422 163.862 106.68 163.643 106.919 163.404L107.633 162.69L106.919 163.401C106.659 163.661 106.424 163.945 106.221 164.253C106.016 164.557 105.844 164.88 105.701 165.221C105.56 165.563 105.453 165.914 105.383 166.273C105.31 166.635 105.273 167 105.273 167.37C105.273 167.737 105.31 168.102 105.38 168.464C105.453 168.826 105.56 169.177 105.701 169.518C105.841 169.857 106.013 170.182 106.219 170.487C106.422 170.794 106.656 171.078 106.917 171.339C107.177 171.599 107.461 171.831 107.766 172.036C108.073 172.242 108.396 172.414 108.737 172.555C109.078 172.698 109.427 172.802 109.789 172.875C110.151 172.948 110.516 172.984 110.883 172.984C111.253 172.984 111.617 172.948 111.979 172.875C112.341 172.805 112.69 172.698 113.031 172.557C113.372 172.417 113.695 172.242 114.003 172.039C114.31 171.833 114.591 171.602 114.854 171.341C114.57 171.596 114.315 171.878 114.089 172.182C113.862 172.49 113.667 172.815 113.508 173.161C113.346 173.508 113.224 173.867 113.138 174.237C113.049 174.609 113.003 174.984 112.992 175.367C112.982 175.747 113.01 176.125 113.076 176.503C113.143 176.878 113.247 177.242 113.388 177.596C113.529 177.951 113.706 178.286 113.914 178.604C114.125 178.924 114.365 179.216 114.633 179.487C114.904 179.755 115.198 179.995 115.516 180.206C115.833 180.414 116.172 180.591 116.526 180.732C116.88 180.872 117.245 180.977 117.62 181.044C117.995 181.109 118.372 181.138 118.755 181.128C119.135 181.117 119.51 181.068 119.883 180.982C120.255 180.893 120.612 180.771 120.958 180.612C121.305 180.451 121.63 180.258 121.937 180.031C122.245 179.805 122.526 179.549 122.779 179.266L126.273 175.771C126.492 175.547 126.693 175.307 126.872 175.052L127.516 175.466L132.323 180.255C132.583 180.516 132.867 180.75 133.172 180.953C133.479 181.159 133.802 181.331 134.143 181.471C134.484 181.615 134.833 181.719 135.195 181.792C135.557 181.865 135.922 181.898 136.289 181.898C136.659 181.898 137.023 181.865 137.385 181.792C137.745 181.719 138.096 181.615 138.437 181.471C138.776 181.331 139.102 181.159 139.406 180.953C139.714 180.75 139.997 180.516 140.258 180.255C140.518 179.995 140.75 179.714 140.956 179.406C141.159 179.099 141.333 178.776 141.474 178.435C141.615 178.096 141.721 177.745 141.792 177.383C141.865 177.023 141.901 176.656 141.901 176.289C141.901 175.922 141.865 175.555 141.792 175.195C141.721 174.833 141.615 174.482 141.474 174.143C141.333 173.802 141.159 173.479 140.956 173.172C140.75 172.865 140.518 172.583 140.258 172.323L131.823 163.883L131.893 163.813L140.328 172.25C140.589 172.51 140.872 172.745 141.18 172.948C141.484 173.154 141.81 173.326 142.148 173.466C142.49 173.607 142.841 173.714 143.203 173.786C143.562 173.859 143.93 173.893 144.297 173.893C144.667 173.893 145.031 173.859 145.393 173.786C145.753 173.714 146.104 173.607 146.445 173.466C146.786 173.326 147.109 173.154 147.414 172.948C147.721 172.745 148.005 172.51 148.266 172.25C148.526 171.99 148.758 171.706 148.964 171.401C149.169 171.094 149.341 170.771 149.482 170.43C149.622 170.089 149.729 169.737 149.802 169.378C149.872 169.016 149.909 168.651 149.909 168.281C149.909 167.914 149.872 167.549 149.802 167.188C149.729 166.826 149.622 166.474 149.482 166.133C149.341 165.794 149.169 165.471 148.964 165.164C148.758 164.857 148.526 164.573 148.266 164.313C148.531 164.552 148.815 164.763 149.12 164.948C149.427 165.133 149.745 165.286 150.081 165.409C150.414 165.531 150.758 165.622 151.109 165.68C151.461 165.74 151.815 165.763 152.172 165.753C152.529 165.745 152.88 165.701 153.229 165.625C153.576 165.547 153.914 165.438 154.242 165.297C154.568 165.156 154.88 164.984 155.174 164.784C155.469 164.586 155.742 164.359 155.995 164.107C156.247 163.854 156.471 163.581 156.672 163.284C156.872 162.99 157.042 162.677 157.182 162.349C157.32 162.021 157.43 161.685 157.505 161.336C157.581 160.987 157.622 160.635 157.633 160.279C157.641 159.922 157.615 159.568 157.557 159.216C157.497 158.865 157.406 158.523 157.281 158.188C157.156 157.854 157.003 157.534 156.818 157.229C156.633 156.924 156.422 156.641 156.182 156.378C156.609 156.805 157.096 157.154 157.638 157.427C158.18 157.698 158.75 157.878 159.349 157.964C159.951 158.049 160.547 158.039 161.143 157.93C161.74 157.823 162.305 157.625 162.836 157.333C163.367 157.044 163.841 156.677 164.253 156.232C164.667 155.789 165 155.292 165.25 154.74C165.503 154.19 165.661 153.612 165.727 153.01C165.789 152.406 165.758 151.81 165.63 151.219L166.32 153.508L170.253 149.576C170.93 148.901 171.57 148.193 172.177 147.453C172.784 146.716 173.354 145.948 173.885 145.154C174.417 144.359 174.906 143.539 175.357 142.695C175.81 141.854 176.216 140.99 176.583 140.107C176.951 139.224 177.271 138.323 177.549 137.409C177.828 136.495 178.06 135.568 178.245 134.63C178.432 133.693 178.573 132.747 178.667 131.797C178.76 130.844 178.807 129.891 178.807 128.935C178.807 127.977 178.76 127.023 178.667 126.073C178.576 125.12 178.435 124.177 178.247 123.237C178.062 122.299 177.831 121.375 177.552 120.458C177.276 119.544 176.953 118.643 176.589 117.76C176.221 116.878 175.812 116.013 175.362 115.172C174.911 114.328 174.422 113.508 173.891 112.714C173.359 111.917 172.792 111.151 172.185 110.411C171.578 109.672 170.937 108.964 170.26 108.289Z" fill="#FFCA1D"/>
<path d="M136.279 182.315C135.479 182.318 134.708 182.164 133.971 181.859C133.232 181.555 132.581 181.12 132.016 180.552L127.245 175.794L88.1693 150.672C88.1432 150.656 88.1198 150.635 88.0989 150.615L87.3359 149.852C86.651 149.167 86 148.448 85.3854 147.698C84.7682 146.948 84.1927 146.172 83.6536 145.365C83.1146 144.557 82.6146 143.727 82.1588 142.872C81.7005 142.016 81.2864 141.141 80.9166 140.245C80.5443 139.349 80.2187 138.435 79.9375 137.508C79.6562 136.578 79.4193 135.638 79.2318 134.688C79.0416 133.737 78.8984 132.779 78.8047 131.813C78.7083 130.846 78.6614 129.88 78.6614 128.909C78.6614 127.94 78.7083 126.971 78.8047 126.008C78.8984 125.042 79.0416 124.083 79.2318 123.133C79.4193 122.18 79.6562 121.24 79.9375 120.313C80.2187 119.385 80.5443 118.471 80.9166 117.576C81.2864 116.68 81.7005 115.805 82.1588 114.948C82.6146 114.094 83.1146 113.263 83.6536 112.456C84.1927 111.648 84.7682 110.87 85.3854 110.12C86 109.37 86.651 108.654 87.3359 107.966C88.0208 107.281 88.7396 106.63 89.4896 106.016C90.2396 105.401 91.0182 104.823 91.8255 104.284C92.6302 103.745 93.4609 103.247 94.3177 102.789C95.1719 102.333 96.0495 101.919 96.9453 101.547C97.8411 101.177 98.7526 100.849 99.6823 100.568C100.609 100.286 101.549 100.052 102.5 99.862C103.453 99.6719 104.411 99.5313 105.375 99.4349C106.341 99.3412 107.31 99.2917 108.279 99.2917C109.247 99.2917 110.216 99.3412 111.182 99.4349C112.146 99.5313 113.104 99.6719 114.057 99.862C115.008 100.052 115.948 100.286 116.875 100.568C117.805 100.849 118.716 101.177 119.612 101.547C120.508 101.919 121.385 102.333 122.24 102.789C123.096 103.247 123.927 103.745 124.734 104.284C125.539 104.823 126.318 105.401 127.068 106.016C127.818 106.63 128.536 107.281 129.221 107.966L129.294 108.042C129.312 108.057 129.328 108.076 129.341 108.094L141.604 125.326L164.43 148.148C164.677 148.393 164.901 148.659 165.102 148.945C165.305 149.229 165.479 149.531 165.63 149.846C165.779 150.161 165.901 150.487 165.992 150.826C166.086 151.161 166.148 151.503 166.182 151.852C166.216 152.198 166.219 152.547 166.193 152.896C166.164 153.245 166.107 153.586 166.021 153.924C165.935 154.263 165.82 154.591 165.674 154.911C165.531 155.229 165.362 155.531 165.167 155.82C164.969 156.109 164.75 156.38 164.505 156.63C164.263 156.88 164 157.109 163.716 157.313C163.435 157.518 163.135 157.698 162.823 157.852C162.508 158.005 162.182 158.13 161.846 158.227C161.513 158.323 161.169 158.391 160.823 158.427C160.477 158.464 160.128 158.471 159.779 158.448C159.432 158.427 159.086 158.372 158.747 158.289C158.409 158.208 158.078 158.096 157.758 157.956C157.997 158.51 158.151 159.089 158.216 159.69C158.281 160.292 158.255 160.888 158.143 161.482C158.029 162.076 157.828 162.638 157.547 163.172C157.263 163.706 156.906 164.185 156.479 164.612C156.049 165.039 155.57 165.393 155.036 165.674C154.5 165.958 153.937 166.156 153.344 166.268C152.75 166.38 152.151 166.404 151.552 166.336C150.951 166.268 150.372 166.115 149.82 165.875C150.062 166.435 150.216 167.021 150.284 167.628C150.349 168.234 150.323 168.839 150.206 169.44C150.086 170.039 149.883 170.607 149.591 171.146C149.302 171.685 148.937 172.167 148.5 172.594C148.062 173.021 147.573 173.372 147.026 173.651C146.482 173.93 145.909 174.12 145.307 174.224C144.703 174.326 144.099 174.339 143.495 174.258C142.888 174.177 142.307 174.01 141.753 173.753C141.859 173.982 141.951 174.216 142.026 174.456C142.104 174.698 142.164 174.94 142.211 175.19C142.258 175.438 142.286 175.688 142.302 175.938C142.318 176.19 142.315 176.443 142.299 176.693C142.281 176.945 142.25 177.195 142.201 177.443C142.154 177.69 142.089 177.935 142.01 178.174C141.932 178.414 141.839 178.646 141.729 178.875C141.622 179.102 141.5 179.323 141.365 179.534C141.229 179.747 141.081 179.951 140.919 180.143C140.758 180.339 140.583 180.521 140.401 180.693C140.216 180.865 140.021 181.026 139.818 181.174C139.612 181.32 139.401 181.456 139.18 181.576C138.958 181.698 138.729 181.805 138.495 181.896C138.26 181.99 138.021 182.068 137.776 182.13C137.531 182.19 137.284 182.237 137.034 182.268C136.784 182.299 136.534 182.315 136.281 182.315H136.279ZM88.6588 149.99L127.747 175.115C127.771 175.13 127.794 175.151 127.815 175.172L132.607 179.961C132.846 180.203 133.109 180.419 133.393 180.607C133.677 180.797 133.977 180.958 134.292 181.089C134.607 181.219 134.932 181.318 135.266 181.383C135.602 181.451 135.937 181.484 136.279 181.484C136.62 181.484 136.958 181.451 137.292 181.383C137.628 181.318 137.953 181.219 138.268 181.089C138.583 180.958 138.883 180.797 139.164 180.607C139.448 180.419 139.711 180.203 139.953 179.961C140.193 179.721 140.409 179.458 140.599 179.174C140.786 178.891 140.948 178.591 141.078 178.276C141.208 177.961 141.307 177.638 141.375 177.302C141.44 176.969 141.474 176.63 141.474 176.289C141.474 175.948 141.44 175.609 141.375 175.276C141.307 174.94 141.208 174.617 141.078 174.302C140.948 173.987 140.786 173.688 140.599 173.404C140.409 173.12 140.193 172.857 139.953 172.617L131.529 164.18C131.445 164.099 131.406 164 131.406 163.883C131.406 163.768 131.445 163.669 131.529 163.586L131.599 163.516C131.682 163.435 131.779 163.393 131.896 163.393C132.01 163.393 132.109 163.435 132.19 163.516L140.615 171.958C140.854 172.206 141.117 172.43 141.401 172.625C141.682 172.82 141.984 172.987 142.299 173.122C142.617 173.26 142.945 173.365 143.281 173.435C143.62 173.505 143.961 173.542 144.305 173.547C144.651 173.549 144.992 173.518 145.331 173.453C145.669 173.388 146 173.289 146.318 173.159C146.638 173.029 146.94 172.867 147.227 172.677C147.516 172.487 147.781 172.268 148.023 172.026C148.268 171.781 148.484 171.516 148.677 171.229C148.867 170.94 149.029 170.638 149.159 170.318C149.289 170 149.388 169.669 149.453 169.331C149.518 168.992 149.549 168.651 149.544 168.307C149.542 167.961 149.505 167.62 149.435 167.284C149.362 166.945 149.26 166.617 149.122 166.302C148.987 165.984 148.82 165.685 148.625 165.401C148.43 165.117 148.206 164.854 147.958 164.615L139.523 156.177C139.432 156.099 139.385 155.997 139.38 155.878C139.378 155.755 139.419 155.654 139.503 155.568C139.589 155.482 139.693 155.44 139.812 155.445C139.935 155.448 140.034 155.495 140.115 155.586L148.549 164.005C148.792 164.247 149.052 164.464 149.336 164.651C149.62 164.841 149.919 165.003 150.234 165.133C150.549 165.263 150.872 165.362 151.208 165.427C151.542 165.495 151.88 165.529 152.221 165.529C152.562 165.529 152.901 165.495 153.234 165.427C153.568 165.362 153.893 165.263 154.208 165.133C154.523 165.003 154.823 164.841 155.107 164.654C155.391 164.464 155.654 164.247 155.893 164.008C156.135 163.766 156.349 163.503 156.539 163.221C156.729 162.938 156.888 162.638 157.021 162.323C157.151 162.008 157.25 161.682 157.315 161.349C157.383 161.013 157.417 160.677 157.417 160.336C157.417 159.995 157.383 159.656 157.315 159.323C157.25 158.987 157.151 158.664 157.021 158.349C156.891 158.034 156.729 157.734 156.542 157.451C156.352 157.167 156.135 156.904 155.896 156.661L147.458 148.224C147.367 148.146 147.32 148.044 147.315 147.924C147.312 147.802 147.352 147.701 147.437 147.615C147.523 147.529 147.628 147.487 147.747 147.492C147.867 147.495 147.969 147.542 148.049 147.633L156.487 156.07C156.727 156.313 156.99 156.526 157.273 156.716C157.557 156.906 157.857 157.065 158.172 157.195C158.487 157.326 158.81 157.422 159.146 157.49C159.479 157.555 159.818 157.589 160.159 157.589C160.497 157.589 160.836 157.555 161.169 157.487C161.505 157.422 161.828 157.323 162.143 157.193C162.458 157.06 162.758 156.901 163.042 156.711C163.323 156.523 163.586 156.307 163.826 156.065C164.068 155.826 164.284 155.563 164.471 155.279C164.661 154.997 164.82 154.698 164.951 154.383C165.083 154.068 165.18 153.742 165.247 153.409C165.312 153.076 165.346 152.737 165.346 152.396C165.346 152.055 165.315 151.719 165.247 151.383C165.182 151.049 165.083 150.724 164.953 150.411C164.823 150.096 164.664 149.797 164.474 149.513C164.284 149.229 164.07 148.966 163.828 148.727L140.984 125.88C140.966 125.865 140.953 125.846 140.937 125.826L128.661 108.602L128.625 108.563C127.958 107.898 127.26 107.266 126.531 106.667C125.805 106.07 125.047 105.508 124.263 104.984C123.482 104.461 122.672 103.977 121.841 103.534C121.01 103.089 120.159 102.688 119.289 102.326C118.419 101.964 117.531 101.648 116.63 101.375C115.729 101.102 114.815 100.872 113.891 100.688C112.966 100.505 112.036 100.365 111.096 100.273C110.159 100.18 109.219 100.135 108.276 100.135C107.333 100.135 106.393 100.18 105.456 100.273C104.518 100.365 103.589 100.503 102.664 100.688C101.74 100.872 100.826 101.099 99.9245 101.372C99.0208 101.646 98.1354 101.964 97.2656 102.326C96.3932 102.685 95.5416 103.089 94.7109 103.531C93.8802 103.977 93.0729 104.461 92.289 104.984C91.5052 105.508 90.75 106.068 90.0208 106.667C89.2916 107.263 88.5963 107.896 87.9297 108.563C87.263 109.229 86.6302 109.927 86.0312 110.654C85.4349 111.383 84.8724 112.141 84.3489 112.922C83.8255 113.706 83.3411 114.513 82.8984 115.346C82.4531 116.177 82.0521 117.026 81.6901 117.898C81.3307 118.768 81.013 119.656 80.7396 120.557C80.4661 121.458 80.237 122.372 80.0521 123.297C79.8698 124.221 79.7318 125.151 79.638 126.089C79.5469 127.029 79.5 127.969 79.5 128.911C79.5 129.852 79.5469 130.792 79.638 131.732C79.7291 132.669 79.8672 133.599 80.0521 134.523C80.237 135.448 80.4635 136.362 80.7396 137.263C81.013 138.167 81.3281 139.052 81.6901 139.922C82.0495 140.794 82.4531 141.643 82.8958 142.477C83.3411 143.307 83.8255 144.115 84.3489 144.898C84.8724 145.682 85.4323 146.438 86.0312 147.167C86.6276 147.896 87.2604 148.591 87.9271 149.258L88.6588 149.99Z" fill="#FEFEFE"/>
<path d="M148.68 120.424L147.026 122.078C145.904 123.201 144.609 124.065 143.143 124.672C141.677 125.279 140.151 125.583 138.565 125.583H130.581L124.469 131.695C124.159 132.005 123.82 132.284 123.456 132.526C123.091 132.771 122.706 132.977 122.3 133.143C121.893 133.313 121.477 133.438 121.047 133.523C120.617 133.609 120.182 133.651 119.742 133.651C119.305 133.651 118.87 133.609 118.44 133.523C118.008 133.438 117.591 133.313 117.185 133.143C116.781 132.977 116.396 132.771 116.031 132.526C115.667 132.284 115.328 132.005 115.018 131.695C114.706 131.385 114.43 131.049 114.185 130.682C113.943 130.318 113.737 129.932 113.568 129.529C113.401 129.122 113.273 128.706 113.188 128.273C113.102 127.844 113.06 127.409 113.06 126.971C113.06 126.531 113.102 126.096 113.188 125.667C113.273 125.237 113.401 124.818 113.568 124.414C113.737 124.008 113.943 123.622 114.185 123.258C114.43 122.893 114.706 122.555 115.018 122.245L128.971 108.289C129.648 107.612 130.357 106.971 131.096 106.365C131.833 105.758 132.602 105.19 133.396 104.659C134.193 104.128 135.01 103.635 135.854 103.185C136.698 102.734 137.56 102.326 138.445 101.961C139.328 101.594 140.227 101.273 141.141 100.995C142.057 100.719 142.982 100.487 143.922 100.299C144.859 100.115 145.802 99.974 146.755 99.8802C147.706 99.7865 148.661 99.7396 149.617 99.7396C150.573 99.7396 151.526 99.7865 152.477 99.8802C153.43 99.974 154.375 100.115 155.313 100.299C156.25 100.487 157.177 100.719 158.091 100.995C159.005 101.273 159.906 101.594 160.789 101.961C161.672 102.326 162.536 102.734 163.378 103.185C164.221 103.635 165.042 104.128 165.836 104.659C166.63 105.19 167.398 105.758 168.138 106.365C168.878 106.971 169.583 107.612 170.26 108.289C170.938 108.964 171.578 109.672 172.185 110.411C172.792 111.151 173.359 111.917 173.891 112.711C174.422 113.508 174.914 114.326 175.365 115.169C175.815 116.013 176.224 116.878 176.589 117.76C176.956 118.643 177.276 119.542 177.555 120.458C177.833 121.372 178.065 122.299 178.25 123.237C178.438 124.174 178.578 125.12 178.672 126.07C178.766 127.023 178.813 127.977 178.813 128.932C178.813 129.888 178.766 130.844 178.672 131.794C178.578 132.745 178.438 133.69 178.25 134.628C178.065 135.565 177.833 136.492 177.555 137.406C177.276 138.323 176.956 139.221 176.589 140.104C176.224 140.99 175.815 141.852 175.365 142.695C174.914 143.539 174.422 144.357 173.891 145.154C173.359 145.948 172.792 146.714 172.185 147.453C171.578 148.193 170.938 148.901 170.26 149.576L166.328 153.508L165.367 150.328L139.846 125.513M126.279 167.833C126.018 167.573 125.734 167.341 125.427 167.135C125.122 166.932 124.8 166.758 124.458 166.617C124.117 166.477 123.768 166.37 123.406 166.299C123.044 166.227 122.68 166.19 122.313 166.19C121.943 166.19 121.578 166.227 121.216 166.299C120.857 166.37 120.505 166.477 120.164 166.617C119.826 166.758 119.5 166.932 119.195 167.135C118.888 167.341 118.604 167.573 118.344 167.833C118.599 167.573 118.823 167.286 119.023 166.982C119.221 166.674 119.388 166.354 119.523 166.016C119.659 165.677 119.76 165.328 119.828 164.969C119.893 164.612 119.927 164.25 119.925 163.885C119.922 163.521 119.883 163.159 119.81 162.802C119.737 162.445 119.628 162.099 119.487 161.76C119.346 161.424 119.175 161.104 118.971 160.802C118.768 160.5 118.536 160.219 118.279 159.961C118.021 159.703 117.742 159.474 117.438 159.271C117.135 159.068 116.815 158.896 116.479 158.755C116.143 158.615 115.797 158.505 115.44 158.432C115.081 158.359 114.721 158.323 114.357 158.318C113.992 158.315 113.63 158.349 113.271 158.417C112.914 158.484 112.565 158.586 112.227 158.721C111.888 158.857 111.565 159.023 111.26 159.221C110.953 159.419 110.669 159.646 110.406 159.898L106.914 163.391C106.654 163.651 106.419 163.935 106.216 164.242C106.01 164.547 105.839 164.87 105.698 165.211C105.557 165.552 105.451 165.904 105.378 166.263C105.305 166.625 105.271 166.99 105.271 167.359C105.271 167.727 105.305 168.091 105.378 168.453C105.448 168.815 105.555 169.164 105.695 169.505C105.839 169.846 106.01 170.169 106.214 170.477C106.419 170.781 106.651 171.065 106.911 171.326C107.172 171.586 107.456 171.82 107.763 172.023C108.068 172.229 108.391 172.401 108.732 172.544C109.073 172.685 109.422 172.792 109.784 172.862C110.146 172.935 110.51 172.971 110.88 172.971C111.247 172.971 111.612 172.935 111.974 172.865C112.336 172.792 112.685 172.688 113.026 172.547C113.367 172.404 113.69 172.232 113.997 172.029C114.305 171.823 114.586 171.591 114.849 171.331C114.573 171.589 114.328 171.87 114.112 172.177C113.896 172.484 113.711 172.807 113.557 173.151C113.406 173.495 113.292 173.852 113.211 174.219C113.13 174.586 113.086 174.956 113.081 175.333C113.076 175.708 113.107 176.081 113.177 176.451C113.245 176.818 113.349 177.177 113.492 177.526C113.633 177.875 113.807 178.206 114.013 178.518C114.221 178.831 114.458 179.12 114.724 179.385C114.99 179.651 115.279 179.888 115.591 180.096C115.904 180.305 116.234 180.479 116.583 180.62C116.932 180.76 117.292 180.865 117.659 180.935C118.029 181.003 118.401 181.036 118.776 181.029C119.154 181.023 119.523 180.982 119.891 180.901C120.258 180.82 120.615 180.706 120.958 180.552C121.302 180.401 121.628 180.216 121.932 180C122.24 179.784 122.521 179.539 122.779 179.266L126.273 175.771C126.534 175.51 126.766 175.227 126.971 174.922C127.177 174.615 127.349 174.292 127.49 173.951C127.633 173.609 127.737 173.26 127.81 172.898C127.883 172.536 127.919 172.172 127.919 171.805C127.919 171.435 127.883 171.07 127.813 170.708C127.74 170.346 127.633 169.997 127.492 169.656C127.352 169.315 127.18 168.992 126.977 168.685C126.771 168.378 126.539 168.094 126.279 167.833ZM110.406 159.898C110.669 159.638 110.901 159.357 111.107 159.049C111.313 158.742 111.484 158.419 111.625 158.078C111.768 157.737 111.875 157.388 111.945 157.026C112.018 156.664 112.055 156.299 112.055 155.93C112.055 155.563 112.018 155.195 111.948 154.836C111.875 154.474 111.768 154.122 111.628 153.781C111.487 153.44 111.313 153.117 111.109 152.81C110.904 152.503 110.672 152.221 110.411 151.958C110.148 151.698 109.867 151.466 109.56 151.26C109.253 151.057 108.93 150.883 108.589 150.742C108.247 150.602 107.896 150.495 107.536 150.424C107.174 150.352 106.807 150.315 106.44 150.315C106.07 150.315 105.706 150.352 105.344 150.424C104.982 150.497 104.633 150.602 104.292 150.745C103.951 150.885 103.628 151.06 103.32 151.263C103.016 151.469 102.732 151.701 102.471 151.964C102.732 151.703 102.964 151.419 103.169 151.112C103.372 150.805 103.547 150.482 103.688 150.141C103.828 149.802 103.935 149.451 104.005 149.089C104.078 148.727 104.115 148.362 104.115 147.995C104.115 147.625 104.078 147.26 104.005 146.898C103.935 146.536 103.828 146.188 103.688 145.846C103.547 145.505 103.372 145.182 103.169 144.875C102.964 144.57 102.732 144.286 102.471 144.026C102.211 143.766 101.927 143.531 101.62 143.328C101.313 143.122 100.99 142.951 100.648 142.81C100.31 142.669 99.9584 142.563 99.5964 142.49C99.2344 142.417 98.8698 142.383 98.5026 142.383C98.1328 142.383 97.7682 142.417 97.4063 142.49C97.0469 142.563 96.6953 142.669 96.3542 142.81C96.013 142.951 95.6901 143.122 95.3828 143.328C95.0781 143.531 94.7943 143.766 94.5339 144.026L91.0417 147.521C90.7891 147.781 90.5625 148.065 90.3646 148.372C90.1667 148.677 90 149 89.862 149.339C89.7266 149.677 89.625 150.026 89.5573 150.383C89.4922 150.742 89.4584 151.104 89.461 151.469C89.4636 151.833 89.5026 152.193 89.5755 152.552C89.6485 152.909 89.7552 153.255 89.8959 153.591C90.0365 153.927 90.211 154.247 90.4141 154.549C90.6172 154.854 90.8464 155.133 91.1042 155.391C91.362 155.648 91.6432 155.88 91.9453 156.083C92.2474 156.286 92.5677 156.458 92.9037 156.599C93.2396 156.74 93.586 156.849 93.9453 156.922C94.3021 156.995 94.6615 157.034 95.0261 157.036C95.3906 157.039 95.7526 157.008 96.112 156.94C96.4714 156.872 96.8177 156.771 97.1563 156.635C97.4948 156.5 97.8177 156.333 98.125 156.135C98.4297 155.935 98.7136 155.711 98.9766 155.456C98.724 155.719 98.4974 156.003 98.2995 156.31C98.1016 156.615 97.9323 156.938 97.7969 157.276C97.6641 157.615 97.5625 157.964 97.4948 158.32C97.4271 158.68 97.3932 159.042 97.3985 159.406C97.4011 159.771 97.4375 160.13 97.513 160.49C97.586 160.846 97.6927 161.193 97.8334 161.529C97.974 161.865 98.1459 162.185 98.349 162.487C98.5521 162.792 98.7839 163.07 99.0417 163.328C99.2995 163.586 99.5807 163.818 99.8828 164.021C100.185 164.224 100.505 164.396 100.841 164.536C101.177 164.677 101.523 164.784 101.883 164.857C102.24 164.93 102.599 164.969 102.964 164.971C103.328 164.974 103.69 164.943 104.049 164.875C104.406 164.807 104.755 164.706 105.094 164.57C105.432 164.435 105.755 164.268 106.063 164.068C106.367 163.87 106.651 163.643 106.914 163.391L110.406 159.898Z" fill="#5187F0"/>
<path d="M126.573 167.539C126.146 167.112 125.664 166.755 125.128 166.474C124.594 166.19 124.029 165.992 123.432 165.878C122.839 165.766 122.24 165.742 121.638 165.81C121.036 165.878 120.458 166.031 119.904 166.273C120.003 166.044 120.089 165.81 120.159 165.57C120.229 165.331 120.284 165.089 120.326 164.844C120.365 164.596 120.391 164.349 120.401 164.102C120.409 163.852 120.404 163.604 120.383 163.354C120.362 163.107 120.326 162.859 120.273 162.617C120.221 162.372 120.156 162.133 120.076 161.898C119.992 161.661 119.898 161.432 119.786 161.208C119.677 160.984 119.555 160.768 119.417 160.56C119.281 160.352 119.133 160.154 118.971 159.964C118.81 159.773 118.638 159.594 118.453 159.424C118.271 159.255 118.076 159.099 117.872 158.956C117.669 158.81 117.458 158.68 117.24 158.56C117.021 158.443 116.794 158.339 116.563 158.247C116.331 158.156 116.094 158.081 115.852 158.021C115.609 157.958 115.365 157.914 115.117 157.883C114.87 157.852 114.622 157.836 114.372 157.836C113.534 157.839 112.727 158.005 111.958 158.344C112.203 157.789 112.359 157.211 112.43 156.607C112.5 156.005 112.479 155.406 112.367 154.81C112.258 154.214 112.06 153.646 111.779 153.109C111.495 152.573 111.141 152.091 110.714 151.661C110.284 151.232 109.802 150.875 109.268 150.589C108.732 150.305 108.167 150.107 107.57 149.995C106.974 149.88 106.375 149.857 105.773 149.924C105.169 149.992 104.591 150.148 104.034 150.391C104.175 150.07 104.284 149.742 104.367 149.404C104.448 149.065 104.5 148.721 104.523 148.372C104.544 148.026 104.536 147.68 104.5 147.333C104.461 146.987 104.396 146.646 104.297 146.31C104.201 145.977 104.076 145.651 103.925 145.339C103.771 145.026 103.591 144.727 103.388 144.445C103.182 144.164 102.956 143.901 102.706 143.659C102.456 143.417 102.188 143.195 101.898 143C101.609 142.805 101.307 142.633 100.99 142.49C100.672 142.346 100.346 142.232 100.008 142.143C99.6693 142.057 99.3281 142 98.9818 141.974C98.6328 141.945 98.2865 141.948 97.9401 141.979C97.5912 142.013 97.25 142.076 96.9141 142.167C96.5781 142.258 96.2526 142.38 95.9375 142.529C95.6224 142.677 95.3203 142.849 95.0365 143.049C94.7526 143.25 94.4844 143.474 94.2396 143.721L90.7448 147.227C90.4974 147.471 90.2709 147.737 90.0677 148.021C89.8672 148.307 89.6901 148.607 89.5391 148.924C89.388 149.24 89.2683 149.565 89.1745 149.904C89.0808 150.24 89.0156 150.583 88.9818 150.93C88.9479 151.279 88.9453 151.628 88.9714 151.977C89 152.323 89.0547 152.667 89.1433 153.008C89.2292 153.346 89.3438 153.674 89.487 153.992C89.6302 154.313 89.8021 154.617 89.9974 154.906C90.1953 155.195 90.4141 155.464 90.6589 155.716C90.9037 155.966 91.1667 156.195 91.4479 156.398C91.7318 156.604 92.0313 156.784 92.3464 156.938C92.6615 157.089 92.9844 157.214 93.3229 157.31C93.6589 157.406 94 157.474 94.3464 157.51C94.6953 157.547 95.0443 157.555 95.3933 157.531C95.7422 157.508 96.086 157.453 96.4245 157.37C96.7656 157.286 97.0938 157.174 97.4141 157.034C97.1719 157.589 97.0183 158.169 96.9505 158.771C96.8828 159.372 96.9063 159.974 97.0209 160.568C97.1328 161.164 97.3334 161.729 97.6172 162.266C97.9011 162.799 98.2578 163.281 98.6875 163.711C99.1172 164.138 99.599 164.492 100.135 164.773C100.672 165.057 101.24 165.253 101.836 165.365C102.432 165.474 103.031 165.495 103.633 165.427C104.234 165.357 104.813 165.201 105.367 164.956C105.122 165.51 104.966 166.089 104.896 166.693C104.826 167.294 104.846 167.893 104.958 168.49C105.068 169.086 105.266 169.654 105.547 170.19C105.831 170.727 106.185 171.211 106.612 171.641C107.042 172.07 107.523 172.427 108.06 172.711C108.596 172.995 109.161 173.193 109.758 173.307C110.354 173.419 110.953 173.443 111.557 173.375C112.159 173.307 112.74 173.151 113.294 172.909C113.156 173.227 113.044 173.557 112.964 173.896C112.883 174.234 112.831 174.576 112.807 174.924C112.786 175.271 112.794 175.617 112.831 175.964C112.87 176.31 112.938 176.651 113.034 176.984C113.13 177.32 113.255 177.643 113.409 177.956C113.56 178.268 113.74 178.568 113.943 178.849C114.148 179.13 114.375 179.393 114.625 179.635C114.875 179.878 115.143 180.096 115.432 180.294C115.719 180.49 116.021 180.659 116.339 180.802C116.656 180.945 116.984 181.063 117.32 181.148C117.659 181.237 118 181.294 118.346 181.32C118.695 181.349 119.042 181.346 119.388 181.313C119.734 181.281 120.076 181.219 120.411 181.128C120.747 181.036 121.073 180.917 121.388 180.768C121.703 180.62 122.005 180.445 122.289 180.247C122.576 180.047 122.841 179.823 123.086 179.578L126.578 176.083C126.859 175.802 127.109 175.497 127.331 175.169C127.552 174.839 127.737 174.49 127.888 174.122C128.042 173.758 128.156 173.378 128.232 172.99C128.31 172.602 128.349 172.208 128.349 171.81C128.349 171.414 128.31 171.021 128.232 170.63C128.154 170.242 128.039 169.865 127.885 169.497C127.734 169.133 127.547 168.784 127.326 168.453C127.104 168.125 126.854 167.82 126.573 167.539ZM99.2683 163.096C99.0261 162.854 98.8125 162.594 98.6224 162.31C98.4349 162.026 98.2735 161.727 98.1433 161.411C98.013 161.096 97.9167 160.771 97.849 160.438C97.7839 160.102 97.75 159.766 97.75 159.424C97.75 159.083 97.7839 158.745 97.849 158.411C97.9167 158.076 98.013 157.753 98.1433 157.438C98.2735 157.122 98.4349 156.823 98.6224 156.539C98.8125 156.255 99.0261 155.992 99.2683 155.75C99.3594 155.672 99.4063 155.57 99.4089 155.451C99.4141 155.328 99.3724 155.227 99.2865 155.141C99.2031 155.055 99.099 155.013 98.9792 155.018C98.8568 155.021 98.7578 155.068 98.6771 155.159C98.4349 155.401 98.1745 155.617 97.8906 155.805C97.6068 155.995 97.3073 156.156 96.9922 156.286C96.6771 156.417 96.3516 156.516 96.0183 156.581C95.6849 156.648 95.3464 156.682 95.0052 156.682C94.6641 156.682 94.3255 156.648 93.9922 156.581C93.6563 156.516 93.3334 156.417 93.0183 156.286C92.7031 156.156 92.4037 155.995 92.1198 155.807C91.836 155.617 91.5729 155.401 91.3334 155.161C91.0912 154.919 90.875 154.659 90.6875 154.375C90.4974 154.091 90.336 153.792 90.2058 153.477C90.0755 153.161 89.9766 152.836 89.9115 152.503C89.8438 152.167 89.8099 151.831 89.8099 151.49C89.8099 151.148 89.8438 150.81 89.9115 150.477C89.9766 150.141 90.0755 149.818 90.2058 149.503C90.336 149.188 90.4948 148.888 90.6849 148.604C90.875 148.32 91.0912 148.057 91.3308 147.818L94.8255 144.323C95.0677 144.089 95.3308 143.88 95.6146 143.698C95.8959 143.513 96.1953 143.359 96.5078 143.234C96.8203 143.112 97.1433 143.018 97.474 142.956C97.8073 142.893 98.1406 142.865 98.4766 142.867C98.8151 142.87 99.1485 142.906 99.4792 142.974C99.8073 143.042 100.128 143.141 100.44 143.271C100.75 143.401 101.047 143.56 101.326 143.747C101.607 143.935 101.865 144.148 102.104 144.388C102.341 144.625 102.555 144.885 102.742 145.164C102.93 145.445 103.089 145.74 103.219 146.052C103.349 146.362 103.451 146.682 103.518 147.013C103.586 147.344 103.62 147.677 103.625 148.013C103.628 148.352 103.596 148.685 103.536 149.016C103.474 149.346 103.38 149.669 103.255 149.982C103.13 150.297 102.977 150.594 102.794 150.878C102.612 151.161 102.401 151.422 102.169 151.667C102.086 151.747 102.047 151.846 102.047 151.964C102.047 152.078 102.086 152.177 102.169 152.26C102.25 152.341 102.349 152.38 102.466 152.38C102.581 152.38 102.68 152.341 102.763 152.26C103.003 152.01 103.263 151.789 103.547 151.594C103.831 151.396 104.13 151.232 104.448 151.094C104.766 150.958 105.091 150.854 105.43 150.784C105.766 150.714 106.107 150.674 106.453 150.672C106.797 150.669 107.141 150.701 107.479 150.766C107.818 150.831 108.146 150.927 108.466 151.06C108.784 151.19 109.089 151.349 109.375 151.542C109.661 151.732 109.927 151.951 110.172 152.193C110.414 152.438 110.633 152.703 110.823 152.99C111.016 153.276 111.175 153.581 111.307 153.898C111.438 154.219 111.534 154.547 111.599 154.885C111.664 155.224 111.695 155.568 111.693 155.911C111.69 156.258 111.651 156.599 111.581 156.935C111.51 157.273 111.406 157.599 111.271 157.917C111.133 158.234 110.969 158.534 110.771 158.818C110.576 159.102 110.354 159.362 110.104 159.602L106.609 163.096C106.367 163.336 106.104 163.552 105.823 163.74C105.539 163.927 105.24 164.089 104.925 164.216C104.609 164.346 104.286 164.445 103.953 164.51C103.617 164.578 103.281 164.612 102.94 164.612C102.602 164.612 102.263 164.578 101.93 164.51C101.596 164.445 101.271 164.346 100.956 164.216C100.643 164.089 100.344 163.927 100.06 163.74C99.7761 163.552 99.5156 163.336 99.2735 163.096H99.2683ZM125.977 175.474L122.487 178.969C122.247 179.208 121.984 179.424 121.701 179.615C121.417 179.802 121.117 179.964 120.802 180.094C120.487 180.224 120.164 180.323 119.828 180.391C119.495 180.456 119.156 180.49 118.815 180.49C118.474 180.49 118.138 180.456 117.802 180.391C117.469 180.323 117.143 180.224 116.828 180.094C116.513 179.964 116.214 179.805 115.93 179.615C115.646 179.424 115.385 179.211 115.143 178.969C114.901 178.729 114.688 178.466 114.497 178.182C114.307 177.898 114.148 177.599 114.018 177.284C113.885 176.969 113.789 176.646 113.721 176.31C113.654 175.977 113.622 175.638 113.622 175.297C113.622 174.956 113.654 174.617 113.721 174.284C113.786 173.951 113.885 173.625 114.016 173.31C114.146 172.995 114.307 172.695 114.497 172.411C114.685 172.128 114.901 171.865 115.143 171.625C115.216 171.542 115.25 171.445 115.247 171.333C115.242 171.224 115.203 171.13 115.125 171.052C115.047 170.974 114.951 170.932 114.841 170.93C114.729 170.924 114.633 170.961 114.552 171.034C114.31 171.273 114.047 171.49 113.763 171.68C113.479 171.867 113.18 172.026 112.865 172.156C112.55 172.286 112.227 172.385 111.891 172.453C111.557 172.518 111.219 172.552 110.878 172.552C110.536 172.549 110.201 172.518 109.865 172.451C109.531 172.383 109.206 172.284 108.891 172.154C108.578 172.023 108.279 171.865 107.995 171.674C107.711 171.484 107.448 171.268 107.208 171.029C106.966 170.786 106.753 170.523 106.563 170.24C106.372 169.958 106.214 169.659 106.083 169.344C105.953 169.029 105.854 168.703 105.789 168.37C105.721 168.034 105.69 167.698 105.69 167.357C105.69 167.016 105.721 166.677 105.789 166.344C105.857 166.008 105.953 165.685 106.086 165.37C106.216 165.055 106.375 164.755 106.565 164.471C106.755 164.188 106.969 163.927 107.211 163.685L110.703 160.19C110.945 159.951 111.208 159.734 111.492 159.544C111.773 159.357 112.073 159.195 112.388 159.065C112.703 158.935 113.029 158.836 113.362 158.768C113.698 158.703 114.036 158.669 114.375 158.669C114.716 158.669 115.055 158.703 115.391 158.768C115.724 158.836 116.05 158.935 116.365 159.065C116.68 159.195 116.979 159.354 117.26 159.544C117.544 159.734 117.807 159.948 118.05 160.19C118.289 160.43 118.505 160.693 118.695 160.977C118.885 161.26 119.044 161.56 119.175 161.875C119.305 162.19 119.404 162.513 119.471 162.849C119.536 163.182 119.57 163.521 119.57 163.862C119.57 164.203 119.536 164.542 119.471 164.875C119.404 165.208 119.305 165.534 119.175 165.849C119.044 166.164 118.885 166.464 118.695 166.747C118.505 167.031 118.292 167.294 118.05 167.534C117.969 167.617 117.927 167.716 117.927 167.831C117.927 167.948 117.969 168.047 118.052 168.128C118.133 168.208 118.232 168.25 118.349 168.25C118.464 168.25 118.563 168.208 118.643 168.125C118.885 167.891 119.148 167.682 119.432 167.5C119.716 167.318 120.013 167.164 120.328 167.039C120.641 166.914 120.964 166.82 121.294 166.76C121.625 166.698 121.961 166.669 122.297 166.672C122.633 166.674 122.966 166.711 123.297 166.779C123.628 166.846 123.948 166.945 124.258 167.076C124.57 167.206 124.865 167.365 125.146 167.555C125.425 167.742 125.682 167.956 125.922 168.193C126.159 168.432 126.372 168.69 126.56 168.971C126.747 169.25 126.909 169.547 127.039 169.857C127.169 170.167 127.268 170.49 127.336 170.818C127.404 171.148 127.438 171.482 127.44 171.82C127.445 172.156 127.414 172.49 127.352 172.823C127.289 173.154 127.198 173.477 127.073 173.789C126.948 174.102 126.792 174.398 126.609 174.682C126.427 174.966 126.219 175.229 125.984 175.471L125.977 175.474Z" fill="#FEFEFE"/>
<path d="M166.328 153.932C166.122 153.93 165.99 153.831 165.93 153.633L164.997 150.549L139.698 125.956C139.323 125.99 138.945 126.008 138.565 126.008H130.753L124.766 131.997C124.435 132.328 124.076 132.622 123.688 132.883C123.302 133.141 122.891 133.359 122.461 133.539C122.029 133.716 121.586 133.852 121.128 133.943C120.672 134.034 120.208 134.078 119.742 134.078C119.276 134.078 118.815 134.034 118.357 133.943C117.898 133.852 117.456 133.716 117.023 133.539C116.594 133.359 116.185 133.141 115.797 132.883C115.409 132.622 115.049 132.328 114.721 131.997C114.391 131.669 114.096 131.31 113.836 130.922C113.578 130.534 113.359 130.125 113.18 129.695C113.003 129.263 112.867 128.82 112.776 128.362C112.685 127.904 112.641 127.443 112.641 126.977C112.641 126.51 112.685 126.047 112.776 125.591C112.867 125.133 113.003 124.69 113.18 124.258C113.359 123.828 113.578 123.417 113.836 123.031C114.096 122.643 114.391 122.284 114.721 121.953L128.677 108C129.365 107.313 130.081 106.661 130.831 106.047C131.581 105.432 132.359 104.854 133.167 104.315C133.971 103.776 134.802 103.279 135.659 102.823C136.513 102.365 137.391 101.951 138.286 101.578C139.182 101.208 140.094 100.88 141.023 100.599C141.951 100.318 142.891 100.083 143.841 99.8932C144.794 99.7031 145.753 99.5625 146.716 99.4662C147.682 99.3724 148.651 99.3255 149.62 99.3255C150.591 99.3255 151.557 99.3724 152.523 99.4662C153.49 99.5625 154.448 99.7031 155.398 99.8932C156.349 100.083 157.289 100.318 158.219 100.599C159.146 100.88 160.057 101.208 160.953 101.578C161.852 101.951 162.727 102.365 163.581 102.823C164.438 103.279 165.268 103.776 166.076 104.315C166.88 104.854 167.659 105.432 168.409 106.047C169.159 106.661 169.878 107.313 170.563 108C171.25 108.685 171.898 109.404 172.516 110.154C173.13 110.904 173.708 111.68 174.247 112.487C174.784 113.294 175.284 114.125 175.74 114.979C176.198 115.836 176.612 116.711 176.982 117.607C177.354 118.503 177.68 119.417 177.961 120.344C178.245 121.273 178.479 122.214 178.669 123.164C178.857 124.115 179 125.073 179.094 126.039C179.19 127.005 179.237 127.971 179.237 128.943C179.237 129.911 179.19 130.88 179.094 131.844C179 132.81 178.857 133.768 178.669 134.719C178.479 135.672 178.245 136.612 177.961 137.539C177.68 138.466 177.354 139.38 176.982 140.276C176.612 141.172 176.198 142.047 175.74 142.904C175.284 143.758 174.784 144.589 174.247 145.396C173.708 146.203 173.13 146.982 172.516 147.732C171.898 148.479 171.25 149.198 170.563 149.885L166.625 153.802C166.544 153.885 166.445 153.93 166.328 153.932ZM140.753 125.81L165.659 150.018C165.711 150.07 165.745 150.13 165.768 150.201L166.529 152.719L169.974 149.271C170.641 148.604 171.273 147.909 171.87 147.18C172.469 146.451 173.029 145.695 173.552 144.911C174.076 144.128 174.56 143.32 175.003 142.487C175.448 141.656 175.849 140.805 176.211 139.935C176.57 139.065 176.888 138.177 177.161 137.276C177.435 136.372 177.664 135.461 177.846 134.536C178.031 133.612 178.169 132.68 178.26 131.742C178.352 130.805 178.398 129.865 178.398 128.922C178.398 127.979 178.352 127.039 178.258 126.102C178.167 125.164 178.029 124.232 177.844 123.307C177.659 122.383 177.43 121.471 177.156 120.568C176.883 119.667 176.565 118.781 176.206 117.909C175.844 117.039 175.443 116.188 174.997 115.357C174.552 114.526 174.068 113.719 173.544 112.935C173.021 112.151 172.461 111.396 171.862 110.667C171.263 109.94 170.633 109.242 169.966 108.576C169.299 107.909 168.602 107.279 167.872 106.68C167.143 106.081 166.388 105.521 165.604 104.997C164.82 104.474 164.013 103.99 163.18 103.547C162.349 103.102 161.497 102.701 160.628 102.341C159.758 101.979 158.87 101.661 157.969 101.388C157.068 101.115 156.154 100.888 155.229 100.703C154.305 100.521 153.372 100.383 152.435 100.289C151.497 100.198 150.557 100.151 149.615 100.151C148.672 100.151 147.732 100.198 146.794 100.292C145.857 100.383 144.924 100.521 144 100.706C143.078 100.891 142.164 101.12 141.263 101.393C140.359 101.667 139.474 101.984 138.604 102.344C137.732 102.706 136.883 103.109 136.049 103.552C135.219 103.997 134.411 104.482 133.628 105.005C132.846 105.529 132.089 106.091 131.362 106.688C130.633 107.286 129.935 107.919 129.268 108.586L115.315 122.539C115.029 122.831 114.776 123.148 114.552 123.49C114.331 123.831 114.143 124.193 113.99 124.57C113.839 124.948 113.724 125.339 113.648 125.74C113.57 126.141 113.534 126.544 113.536 126.951C113.539 127.359 113.581 127.763 113.661 128.161C113.745 128.563 113.865 128.951 114.021 129.326C114.177 129.703 114.37 130.06 114.596 130.398C114.826 130.737 115.083 131.052 115.37 131.341C115.659 131.628 115.971 131.885 116.31 132.115C116.651 132.341 117.008 132.534 117.383 132.69C117.76 132.849 118.148 132.966 118.547 133.049C118.948 133.13 119.352 133.172 119.758 133.174C120.167 133.177 120.57 133.141 120.971 133.065C121.372 132.99 121.763 132.875 122.141 132.721C122.518 132.57 122.878 132.383 123.221 132.159C123.563 131.938 123.88 131.685 124.172 131.398L130.284 125.286C130.367 125.206 130.466 125.164 130.581 125.164H138.565C138.966 125.164 139.365 125.143 139.76 125.104C139.789 125.102 139.818 125.102 139.846 125.104C141.151 124.961 142.393 124.607 143.576 124.039C144.758 123.471 145.813 122.721 146.74 121.792L148.396 120.135C148.479 120.063 148.576 120.029 148.685 120.031C148.797 120.034 148.891 120.076 148.969 120.154C149.047 120.232 149.089 120.326 149.091 120.438C149.094 120.547 149.06 120.643 148.987 120.727L147.32 122.385C146.427 123.281 145.419 124.021 144.299 124.604C143.18 125.19 141.997 125.591 140.753 125.81Z" fill="#FEFEFE"/>
</svg>
